<?xml version="1.0" standalone="no"?>
<!DOCTYPE svg PUBLIC "-//W3C//DTD SVG 20010904//EN"
 "http://www.w3.org/TR/2001/REC-SVG-20010904/DTD/svg10.dtd">
<svg version="1.0" xmlns="http://www.w3.org/2000/svg"
 width="1190.000000pt" height="1190.000000pt" viewBox="0 0 1190.000000 1190.000000"
 preserveAspectRatio="xMidYMid meet">
<metadata>
Created by potrace 1.14, written by Peter Selinger 2001-2017
</metadata>
<g transform="translate(0.000000,1190.000000) scale(0.100000,-0.100000)"
fill="#000000" stroke="none">
<path d="M5736 8143 c-2 -3 -26 -6 -53 -8 -26 -3 -57 -6 -69 -9 -12 -2 -43 -7
-70 -10 -27 -4 -62 -8 -79 -10 -102 -13 -215 -57 -259 -101 -24 -24 -25 -24
-48 -6 -45 35 -64 43 -148 58 -29 5 -185 8 -185 3 0 -1 -18 -3 -40 -5 -56 -5
-167 -17 -185 -20 -8 -1 -42 -6 -75 -10 -32 -4 -66 -8 -75 -10 -8 -1 -64 -10
-125 -19 -125 -19 -150 -24 -185 -30 -26 -5 -82 -14 -135 -22 -16 -2 -55 -8
-85 -14 -30 -5 -68 -12 -85 -15 -72 -12 -172 -43 -204 -63 -104 -62 -151 -114
-184 -199 -25 -65 -28 -85 -42 -338 -2 -27 -3 -50 -4 -51 -1 0 -26 23 -56 52
-93 89 -182 144 -333 203 -28 11 -52 18 -52 15 0 -4 -6 -2 -12 4 -7 5 -33 13
-58 17 -25 4 -54 9 -65 12 -17 3 -177 14 -210 14 -48 0 -167 -16 -245 -32
-128 -27 -123 -26 -140 -31 -8 -3 -35 -11 -59 -18 -25 -6 -56 -17 -70 -23 -14
-6 -28 -11 -31 -12 -102 -27 -505 -211 -685 -314 -27 -15 -77 -43 -110 -61
-33 -19 -66 -40 -73 -47 -7 -7 -24 -16 -38 -19 -13 -3 -24 -10 -24 -14 0 -4
-13 -13 -30 -20 -16 -7 -30 -16 -30 -21 0 -5 -5 -9 -10 -9 -12 0 -234 -141
-238 -152 -2 -5 -8 -8 -13 -8 -18 0 -116 -76 -179 -140 -72 -71 -115 -148
-135 -239 -3 -12 -7 -31 -10 -43 -3 -13 -8 -57 -10 -98 -2 -41 -5 -77 -6 -80
-1 -3 -1 -7 -1 -10 0 -22 14 -231 17 -255 12 -124 82 -211 188 -235 61 -13
116 -1 217 46 l45 22 5 -26 c10 -52 1 -615 -16 -932 -29 -574 -29 -564 -5
-612 18 -37 53 -78 111 -131 55 -49 345 -164 488 -193 13 -3 60 -13 105 -24
137 -33 211 -23 277 36 53 48 79 104 85 189 2 22 4 42 5 45 5 16 1 150 -4 158
-3 6 -2 13 4 17 6 4 7 11 4 17 -7 11 -13 388 -7 401 3 4 30 -28 60 -70 31 -43
74 -101 95 -129 21 -28 38 -56 38 -62 0 -7 4 -12 9 -12 5 0 18 -15 29 -34 11
-18 29 -44 40 -57 11 -13 43 -53 71 -89 58 -72 212 -233 261 -271 17 -13 46
-37 63 -52 98 -86 440 -287 489 -287 8 0 18 -4 24 -8 5 -5 41 -18 79 -30 134
-39 181 -46 315 -45 93 0 122 5 250 43 80 23 147 42 150 43 8 2 114 -25 125
-32 6 -3 15 -6 20 -7 6 -1 58 -14 116 -28 58 -15 119 -29 135 -32 16 -3 37 -7
46 -10 18 -5 48 -12 93 -19 17 -3 66 -12 110 -20 95 -17 124 -22 190 -30 55
-7 91 -13 133 -20 73 -12 281 -32 412 -40 47 -3 103 -8 125 -10 191 -22 889
-22 1190 0 176 13 224 16 260 20 22 3 67 7 100 10 33 2 69 6 80 9 11 2 47 7
80 11 33 4 71 8 85 10 14 2 52 6 85 10 33 4 63 9 67 11 4 3 27 7 50 9 24 3 66
9 93 15 28 6 64 12 80 15 42 6 87 15 107 21 10 3 30 7 45 10 23 4 109 24 256
60 9 2 25 6 35 8 19 4 160 46 234 69 52 16 49 19 63 -49 9 -47 81 -118 131
-129 11 -2 33 -8 49 -13 30 -9 181 -8 245 1 140 22 293 72 445 148 182 91 241
132 343 237 44 46 104 131 108 152 0 3 5 16 11 30 6 14 40 97 76 185 98 240
111 270 117 275 3 3 6 10 7 16 4 19 74 163 82 168 4 3 13 -12 20 -32 8 -20 29
-71 48 -112 20 -41 36 -79 38 -85 10 -42 165 -368 199 -418 14 -21 26 -40 26
-42 0 -17 85 -82 139 -107 111 -51 194 -41 431 54 422 168 549 272 548 451 0
83 -23 147 -105 291 -31 56 -61 110 -67 121 -6 11 -13 22 -16 25 -3 3 -14 22
-25 44 -17 33 -165 249 -195 283 -5 7 -10 15 -10 18 0 8 -44 69 -52 73 -5 2
-8 8 -8 13 0 6 -18 37 -40 70 -22 33 -40 63 -40 66 0 2 -9 16 -20 30 -11 15
-19 27 -18 29 2 1 26 -4 55 -11 113 -29 211 20 257 128 18 43 16 160 -4 197
-17 35 -71 90 -87 90 -7 0 -13 4 -13 9 0 18 -93 29 -147 17 -53 -11 -133 -73
-133 -102 0 -8 -4 -14 -8 -14 -5 0 -10 -6 -11 -12 -1 -7 -5 -40 -10 -73 -6
-47 -10 -55 -16 -37 -4 12 -11 22 -15 22 -4 0 -11 11 -14 25 -6 23 4 53 25 79
5 6 23 29 40 51 31 40 95 119 114 139 9 10 78 89 165 189 14 16 39 46 57 66
18 20 39 44 48 54 9 10 46 57 83 105 36 48 70 90 75 93 5 3 7 8 6 10 -2 2 10
24 27 49 163 237 122 410 -129 558 -78 46 -116 65 -224 113 -94 42 -108 48
-138 55 -16 4 -34 10 -40 14 -19 15 -180 43 -255 45 -94 3 -167 -15 -228 -56
-43 -29 -122 -117 -122 -137 0 -5 -9 -17 -21 -28 -11 -10 -27 -32 -35 -49 -8
-16 -23 -43 -34 -60 -10 -16 -26 -43 -34 -60 -15 -30 -25 -45 -58 -96 -10 -14
-15 -29 -11 -33 3 -3 2 -6 -3 -6 -5 1 -42 68 -82 150 -105 214 -235 403 -362
530 -61 60 -141 130 -149 130 -4 0 -16 8 -27 18 -11 9 -31 23 -43 30 -70 40
-91 51 -91 47 0 -3 -10 1 -22 9 -22 14 -181 64 -223 70 -11 2 -42 6 -70 10
-27 3 -70 8 -95 12 -69 8 -250 9 -298 0 -44 -7 -105 -36 -131 -61 -12 -12 -23
-5 -75 41 -93 84 -291 172 -426 188 -14 2 -36 6 -50 10 -51 13 -99 17 -270 21
-268 7 -338 -15 -455 -148 -14 -15 -25 -32 -25 -37 0 -5 -15 -41 -34 -82 -30
-66 -98 -258 -140 -394 -15 -51 -90 -345 -100 -394 -3 -14 -7 -36 -10 -50 -3
-14 -9 -41 -13 -60 -4 -19 -8 -37 -8 -40 -5 -24 -17 -78 -21 -90 -3 -10 -19
-16 -54 -17 -70 -3 -132 -40 -171 -103 -43 -69 -74 -217 -78 -376 -1 -20 -7
-22 -73 -23 -40 -1 -108 -4 -150 -7 l-78 -6 -1 104 c0 128 2 267 6 333 7 112
16 223 20 265 3 25 7 66 10 90 2 25 7 68 11 95 3 28 8 66 9 85 2 19 6 49 9 65
2 17 8 55 11 85 4 30 9 66 11 80 2 14 6 48 9 75 8 70 12 104 19 145 6 36 9 61
22 165 15 113 5 190 -30 233 -83 102 -179 132 -409 130 -81 -1 -149 -3 -151
-5z m-681 -978 c-5 -37 -15 -153 -18 -212 0 -16 -13 -17 -22 -3 -4 6 -23 17
-43 26 -29 12 -62 14 -152 10 -63 -3 -126 -7 -140 -10 -14 -2 -48 -7 -76 -11
l-50 -7 -1 62 c0 34 -4 65 -9 69 -12 8 -17 41 -7 42 4 0 17 2 28 4 18 2 61 7
185 20 25 2 77 7 115 10 109 8 135 13 151 26 8 6 14 8 14 3 0 -4 5 -3 12 4 19
19 21 15 13 -33z m2759 -438 c20 -87 20 -88 -6 -83 -13 3 -30 5 -38 5 -14 1
-14 9 0 81 8 43 18 76 22 72 4 -4 14 -38 22 -75z m1045 -169 c6 -13 19 -35 29
-49 9 -14 25 -39 36 -55 10 -16 32 -48 47 -72 16 -23 29 -45 29 -47 0 -3 16
-29 35 -59 19 -30 35 -57 35 -60 0 -3 14 -29 32 -58 17 -29 71 -131 120 -227
75 -149 86 -176 76 -195 -6 -11 -58 -97 -115 -189 -56 -92 -103 -172 -103
-177 0 -6 -4 -10 -9 -10 -5 0 -14 -14 -21 -30 -19 -45 -26 -44 -28 3 -2 23 -5
65 -8 92 -4 28 -8 66 -9 85 -2 19 -6 53 -9 75 -2 22 -7 60 -10 85 -3 25 -8 65
-12 90 -3 25 -7 59 -9 75 -2 17 -6 48 -9 70 -4 22 -11 72 -17 110 -6 39 -13
84 -16 100 -2 17 -6 42 -8 57 -2 15 -8 51 -14 80 -6 29 -13 69 -16 88 -3 19
-8 42 -10 50 -2 8 -6 26 -9 40 -3 14 -8 39 -11 55 -3 17 -10 45 -15 63 -10 37
1 43 19 10z m-6303 -94 c35 -17 39 -23 40 -60 1 -22 -8 -63 -20 -90 -21 -49
-82 -154 -95 -164 -4 -3 -20 -23 -37 -45 -48 -65 -156 -151 -234 -187 -19 -8
-52 -24 -73 -33 -21 -10 -40 -15 -43 -13 -2 3 -1 23 4 44 5 22 8 68 7 104 -4
129 -80 230 -193 255 -18 4 -29 11 -26 17 6 9 141 76 244 121 51 22 162 55
212 62 23 4 44 8 46 10 11 10 135 -5 168 -21z m2439 -370 l0 -68 -40 2 c-64 4
-194 2 -223 -2 -15 -3 -51 -8 -79 -11 -29 -3 -67 -11 -85 -16 -62 -17 -67 -14
-65 41 0 28 3 51 6 51 9 2 40 6 96 13 28 4 64 8 80 11 17 2 62 6 100 10 86 7
165 22 185 35 23 14 26 6 25 -66z m-1500 -166 c-5 -90 -6 -347 -1 -385 14 -93
58 -182 141 -279 44 -51 53 -66 38 -62 -9 2 -174 -78 -238 -114 -68 -39 -185
-120 -223 -155 -20 -18 -38 -33 -41 -33 -5 0 -51 50 -101 109 -19 24 -49 57
-65 74 -17 18 -47 52 -67 76 l-37 44 42 30 c102 74 370 369 395 436 3 9 9 18
13 21 8 6 100 198 114 240 1 3 5 17 9 33 14 48 26 29 21 -35z m7579 -92 c41
-40 56 -75 56 -134 0 -71 -26 -134 -68 -163 -20 -13 -38 -24 -41 -24 -3 0 -10
-3 -16 -6 -18 -10 -88 -1 -120 17 -31 16 -75 70 -79 96 -1 7 -4 18 -7 23 -6
11 -4 76 5 111 9 41 51 93 86 108 72 31 131 22 184 -28z m-3129 -66 c4 -52 8
-113 11 -135 2 -22 6 -68 9 -102 6 -71 6 -71 -75 -52 -25 6 -56 12 -70 14 -22
3 -115 21 -160 30 -8 2 -28 4 -43 4 l-29 1 6 73 c11 141 17 191 26 208 8 14
23 16 91 14 86 -2 159 10 159 28 0 6 3 7 6 4 4 -3 16 0 27 8 12 8 24 11 28 7
4 -4 10 -50 14 -102z m1373 -995 c42 -67 66 -152 63 -226 -1 -32 -4 -49 -14
-94 -2 -5 -9 -19 -16 -30 l-13 -20 8 20 c4 11 8 56 10 100 4 122 -25 212 -98
310 l-30 40 38 -40 c22 -23 45 -50 52 -60z"/>
<path d="M10877 5807 c9 -15 10 -117 0 -117 -5 0 -5 -6 0 -12 4 -7 8 -35 8
-63 0 -39 4 -50 18 -53 18 -4 23 19 18 81 -2 22 2 27 21 27 19 0 29 -11 49
-52 17 -37 31 -54 47 -56 29 -4 28 1 -8 60 -27 44 -28 49 -13 55 27 10 42 35
43 69 0 50 -28 67 -115 70 -53 2 -73 -1 -68 -9z m126 -34 c17 -5 24 -47 10
-56 -5 -3 -26 -7 -48 -9 -40 -3 -40 -3 -42 34 -2 38 14 52 47 41 8 -3 23 -8
33 -10z"/>
</g>
</svg>
